<?xml version="1.0" encoding="iso-8859-1"?>
<!-- Generator: Adobe Illustrator 19.0.0, SVG Export Plug-In . SVG Version: 6.00 Build 0)  -->
<svg version="1.1" id="Capa_1" xmlns="http://www.w3.org/2000/svg" xmlns:xlink="http://www.w3.org/1999/xlink" x="0px" y="0px"
	 viewBox="0 0 512 512" style="enable-background:new 0 0 512 512;" xml:space="preserve">
<path style="fill:#DCF4FF;" d="M435,401H75c-41.355,0-75-33.645-75-75V111h377L435,401z"/>
<path style="fill:#CCEFFF;" d="M181,111v215c0,41.355,33.645,75,75,75h179l-58-290H181z"/>
<path style="fill:#7D8AFF;" d="M180,331H60v-90h120V331z"/>
<rect x="210" y="241" style="fill:#6E76E5;" width="122" height="30"/>
<rect x="60" y="181" style="fill:#7D8AFF;" width="272" height="30"/>
<rect x="210" y="301" style="fill:#6E76E5;" width="122" height="30"/>
<path style="fill:#ACE3FC;" d="M467,141c-24.813,0-45,20.187-45,45h-30v-75h-30v215c0,41.355,33.645,75,75,75s75-33.645,75-75V186
	C512,161.187,491.813,141,467,141z"/>
<path style="fill:#86D6F2;" d="M437,371c24.813,0,45-20.187,45-45V186c0-8.271-6.729-15-15-15s-15,6.729-15,15v145h-7h-23V111h-30
	v215C392,350.813,412.187,371,437,371z"/>
<rect x="181" y="181" style="fill:#6E76E5;" width="151" height="30"/>
<g>
</g>
<g>
</g>
<g>
</g>
<g>
</g>
<g>
</g>
<g>
</g>
<g>
</g>
<g>
</g>
<g>
</g>
<g>
</g>
<g>
</g>
<g>
</g>
<g>
</g>
<g>
</g>
<g>
</g>
</svg>
