<?xml version="1.0" encoding="utf-8"?>
<!-- Generator: Adobe Illustrator 17.0.0, SVG Export Plug-In . SVG Version: 6.00 Build 0)  -->
<!DOCTYPE svg PUBLIC "-//W3C//DTD SVG 1.1//EN" "http://www.w3.org/Graphics/SVG/1.1/DTD/svg11.dtd">
<svg version="1.1" id="Layer_1" xmlns="http://www.w3.org/2000/svg" xmlns:xlink="http://www.w3.org/1999/xlink" x="0px" y="0px"
	 width="512px" height="512px" viewBox="0 0 512 512" enable-background="new 0 0 512 512" xml:space="preserve">
<path id="Shape" fill="#0C00FF" d="M29.687,468.207c63.539,39.74,192.956,46.814,269.491,42.573h0.179
	c0.196,0,0.401-0.06,0.597-0.077c54.042-3.046,135.979-14.089,181.41-42.522c3.056-1.913,4.579-5.541,3.806-9.062
	c-4.853-22.52-23.959-39.153-46.933-40.858c-23.834-81.92-5.052-214.545-12.638-282.692C415.164,41.813,367.787,0,272.043,0
	C186.76,0,162.031,39.706,155.136,58.027c-14.232-2.548-28.903,0.268-41.182,7.902C91.972,79.94,79.13,109.21,75.767,152.969
	c-7.202,93.986,7.168,199.97-6.477,265.583c-21.547,3.147-38.871,19.348-43.452,40.636
	C25.094,462.704,26.633,466.311,29.687,468.207L29.687,468.207z M156.467,417.28c2.918,17.835,10.615,51.106,29.338,74.419
	c-11.196-1.033-22.187-2.278-32.777-3.797c-1.476-32.427-10.146-51.354-17.792-61.833
	C142.518,423.662,149.614,420.724,156.467,417.28L156.467,417.28z M213.265,493.764c-29.798-18.287-38.835-70.178-40.892-85.709
	c7.44-4.965,14.361-10.665,20.659-17.015c8.047-8.158,7.68-17.442,6.946-29.065c39.791,39.672,70.153,39.723,109.995,0
	c-0.725,11.75-1.067,20.48,7.125,28.791c6.265,6.286,13.153,11.918,20.557,16.811c-1.946,14.976-10.871,67.763-41.011,86.255
	c-27.774,1.482-55.608,1.462-83.379-0.06V493.764z M162.475,196.386c12.091-18.685,21.579-38.93,28.203-60.177
	c20.719,19.9,71.876,58.445,156.783,60.518c-2.637,19.627-6.724,23.893-1.263,50.057c4.975,24.329-2.381,46.507-25.387,76.57
	c-20.19,26.453-38.656,43.051-54.921,49.391c-7.029,2.79-14.859,2.79-21.888,0c-16.213-6.315-34.671-22.921-54.869-49.374
	c-22.997-30.054-30.362-52.233-25.395-76.527C169.293,220.16,165.137,216.294,162.475,196.386L162.475,196.386z M374.955,425.728
	c-7.68,10.428-16.572,29.474-18.048,62.345c-10.624,1.502-21.632,2.722-32.836,3.738c18.944-23.543,26.615-57.25,29.474-74.982
	c6.92,3.471,14.077,6.445,21.419,8.9H374.955z M466.56,457.097c-29.213,14.047-60.387,23.585-92.459,28.288
	c2.321-35.55,14.507-50.227,19.166-54.613c13.778,2.98,27.837,4.465,41.933,4.429c14.018-0.018,26.552,8.731,31.369,21.897H466.56z
	 M122.974,80.461c10.535-6.464,23.37-7.998,35.132-4.198c2.422,0.911,5.127,0.673,7.353-0.645c2.226-1.319,3.734-3.577,4.099-6.139
	c0.077-0.529,8.567-52.412,102.485-52.412c213.956,0,103.927,231.825,148.224,400.427c-33.998-1.506-66.309-15.236-90.991-38.665
	c-1.462-1.4-2.348-3.296-2.483-5.316c-0.302-12.075,1.176-24.128,4.386-35.772c22.912-29.158,39.134-58.214,31.727-94.404
	c-4.966-23.774-0.956-23.996,1.792-46.711c3.413-0.111,6.827-0.145,10.308-0.375c3.049-0.203,5.758-2.017,7.106-4.758
	c1.349-2.742,1.132-5.994-0.567-8.533c-1.7-2.539-4.625-3.978-7.674-3.775c-121.677,8.081-179.866-64.273-180.429-64.99
	c-2.004-2.575-5.302-3.781-8.494-3.107s-5.722,3.108-6.516,6.273c-7.125,27.947-24.951,71.791-48.043,89.114
	c-2.938,2.204-4.137,6.041-2.975,9.525c1.162,3.485,4.422,5.835,8.095,5.835c1.847,0.007,3.646-0.593,5.12-1.707
	c2.627-2.004,5.123-4.173,7.475-6.494c2.044,9.843,1.678,20.034-1.067,29.705c-7.39,36.147,8.858,65.263,31.727,94.353
	c3.257,11.824,4.726,24.068,4.361,36.326c-0.111,1.892-0.913,3.677-2.253,5.018c-13.397,13.653-42.854,35.883-93.995,38.75
	C106.402,313.122,64.913,117.956,122.974,80.461L122.974,80.461z M76.271,435.2c13.662-0.035,27.287-1.435,40.67-4.181
	c4.873,4.685,16.597,19.456,18.893,54.195c-31.681-4.702-62.466-14.18-91.307-28.109C49.24,443.693,62.06,434.847,76.271,435.2z"/>
</svg>
